<?xml version="1.0" encoding="UTF-8"?>
<svg xmlns="http://www.w3.org/2000/svg" xmlns:xlink="http://www.w3.org/1999/xlink" width="600px" height="600px" viewBox="0 0 600 600" version="1.1">
<g id="surface1">
<path style=" stroke:none;fill-rule:nonzero;fill:rgb(0.392157%,0.392157%,0.392157%);fill-opacity:1;" d="M 131.5 446.007812 C 102.070312 421.527344 84.882812 384.679688 79.9375 335.460938 C 79.9375 333.117188 81.5 331.03125 84.625 329.210938 C 96.34375 328.949219 105.585938 329.46875 112.359375 330.773438 C 113.398438 332.855469 117.304688 337.152344 124.078125 343.664062 C 129.804688 349.390625 133.320312 354.992188 134.625 360.460938 C 134.625 360.71875 133.582031 389.234375 131.5 446.007812 Z M 130.328125 162.804688 C 133.710938 166.1875 135.40625 172.046875 135.40625 180.382812 C 135.40625 182.726562 135.273438 186.371094 135.015625 191.320312 C 134.753906 196.527344 134.625 200.304688 134.625 202.648438 L 134.625 245.226562 C 121.601562 262.671875 113.789062 272.570312 111.1875 274.914062 C 88.53125 273.089844 78.113281 272.570312 79.9375 273.351562 C 81.238281 233.765625 97.515625 196.917969 128.765625 162.804688 Z M 189.3125 360.460938 C 188.007812 355.25 182.019531 345.484375 171.34375 331.164062 C 161.445312 317.882812 156.628906 307.984375 156.890625 301.476562 C 156.890625 294.183594 161.835938 284.417969 171.734375 272.179688 C 182.148438 259.15625 188.007812 249.261719 189.3125 242.492188 L 189.3125 93.664062 C 189.3125 67.882812 187.75 52.648438 184.625 47.960938 L 183.453125 47.960938 C 135.535156 72.4375 97.644531 104.46875 69.78125 144.054688 C 37.75 189.625 22.902344 242.8125 22.378906 302.1875 C 22.121094 362.085938 40.019531 413.261719 71.789062 458.574219 C 100.957031 500.5 137.226562 533.117188 187.75 554.992188 C 188.789062 543.53125 189.3125 511.632812 189.3125 459.289062 Z M 189.3125 360.460938 "/>
<path style=" stroke:none;fill-rule:nonzero;fill:rgb(0.392157%,0.392157%,0.392157%);fill-opacity:1;" d="M 332.382812 387.050781 C 331.078125 401.375 330.558594 424.292969 330.820312 455.800781 C 331.078125 492.78125 331.078125 515.046875 330.820312 522.597656 C 323.789062 526.765625 314.28125 528.847656 302.304688 528.847656 C 289.542969 528.847656 280.429688 526.375 274.960938 521.425781 C 275.21875 494.605469 275.089844 420.515625 274.570312 299.160156 C 274.570312 208.277344 275.21875 134.839844 276.523438 78.847656 C 296.835938 72.597656 314.933594 72.597656 330.820312 78.847656 C 332.382812 94.996094 333.03125 117.910156 332.773438 147.597656 C 332.25 184.316406 332.121094 206.714844 332.382812 214.785156 C 342.796875 217.652344 360.507812 217.652344 385.507812 214.785156 C 386.808594 192.652344 386.808594 132.625 385.507812 34.707031 C 363.890625 27.605469 336.546875 22.535156 303.476562 22.277344 C 270.402344 22.015625 244.6875 26.058594 220.273438 33.144531 C 217.929688 210.75 217.929688 388.222656 220.273438 565.566406 C 241.886719 575.203125 269.359375 580.019531 302.695312 580.019531 C 336.027344 580.019531 363.632812 575.203125 385.507812 565.566406 C 388.109375 506.191406 388.109375 446.6875 385.507812 387.050781 C 367.796875 384.1875 350.089844 384.1875 332.382812 387.050781 Z M 332.382812 387.050781 "/>
<path style=" stroke:none;fill-rule:nonzero;fill:rgb(0.392157%,0.392157%,0.392157%);fill-opacity:1;" d="M 576.449219 274.632812 C 570.488281 274.371094 551.964844 274.503906 520.875 275.023438 C 498.074219 275.285156 480.847656 274.113281 469.1875 271.507812 L 469.1875 214.085938 C 469.1875 181.011719 470.09375 162.785156 471.90625 159.398438 C 479.679688 163.824219 486.804688 172.417969 493.28125 185.179688 C 501.574219 201.847656 507.273438 211.871094 510.382812 215.257812 C 527.480469 218.382812 545.097656 218.382812 563.234375 215.257812 C 544.0625 137.132812 492.078125 86.5625 414.78125 45.335938 C 416.832031 139.769531 416.117188 234.433594 417.28125 328.605469 C 422.203125 328.867188 437.578125 329.449219 468.410156 328.929688 C 492.765625 328.410156 510.640625 329.582031 522.039062 332.445312 C 518.152344 382.707031 501.054688 419.683594 470.742188 443.382812 C 468.667969 439.476562 468.023438 430.882812 468.796875 417.601562 C 469.574219 403.277344 469.1875 393.511719 467.632812 388.304688 C 448.980469 385.441406 433.503906 385.441406 416.921875 388.304688 C 414.332031 443.511719 416.832031 497.648438 414.78125 553.929688 C 467.890625 529.191406 505.785156 493.054688 533.503906 449.566406 C 565.113281 400.347656 581.109375 343.382812 576.449219 274.632812 Z M 576.449219 274.632812 "/>
</g>
</svg>
