<?xml version="1.0" encoding="UTF-8"?>
<svg xmlns="http://www.w3.org/2000/svg" xmlns:xlink="http://www.w3.org/1999/xlink" width="600px" height="600px" viewBox="0 0 600 600" version="1.1">
<g id="surface1">
<path style=" stroke:none;fill-rule:nonzero;fill:rgb(0.392157%,0.392157%,0.392157%);fill-opacity:1;" d="M 185.421875 45.226562 C 140.890625 67.101562 104.429688 96.527344 76.046875 133.507812 C 43.492188 175.695312 25.394531 222.960938 21.75 275.304688 C 17.320312 343.011719 31.253906 401.734375 63.546875 451.476562 C 92.453125 496.007812 131.113281 531.480469 185.542969 556.480469 C 184.386719 488.3125 187.390625 432.484375 185.046875 386.914062 C 166.816406 384.046875 152.085938 384.546875 133.859375 387.414062 C 133.078125 392.101562 133.335938 403.039062 134.640625 420.226562 C 135.679688 433.507812 134.507812 442.230469 131.125 446.398438 C 103 421.65625 85.8125 388.714844 79.5625 347.570312 C 70.1875 287.414062 78 235.328125 103 191.320312 C 113.675781 172.570312 123.570312 161.761719 132.6875 158.898438 C 134.507812 162.804688 134.898438 172.179688 133.859375 187.023438 C 133.078125 201.605469 134.117188 211.371094 136.984375 216.320312 C 147.921875 218.664062 162.28125 217.75 185.71875 213.585938 Z M 185.421875 45.226562 "/>
<path style=" stroke:none;fill-rule:nonzero;fill:rgb(0.392157%,0.392157%,0.392157%);fill-opacity:1;" d="M 301.054688 20.542969 C 265.898438 20.296875 237.433594 27.082031 218.164062 32.398438 C 215.558594 116.46875 217.867188 197.414062 217.644531 281.960938 C 240.5625 285.671875 269.542969 286.050781 301.054688 285.925781 C 332.566406 285.800781 360.800781 286.945312 382.9375 282.988281 C 385.542969 254.675781 384.128906 227.304688 381.523438 199.238281 C 354.441406 198.125 336.863281 197.878906 328.789062 198.496094 C 327.226562 205.171875 326.835938 212.484375 327.617188 228.433594 C 328.398438 243.640625 327.878906 241.84375 326.054688 247.035156 C 317.460938 248.148438 307.695312 248.703125 296.757812 248.703125 C 283.996094 248.578125 275.273438 247.589844 270.585938 245.734375 L 270.585938 211.929688 C 270.585938 187.078125 272.019531 176.304688 274.882812 171.605469 C 278.527344 171.234375 286.601562 171.050781 299.101562 171.050781 C 311.601562 170.925781 320.585938 170.621094 326.054688 170.125 C 329.179688 157.886719 328.660156 137.539062 324.492188 133.085938 C 319.542969 132.46875 310.300781 132.285156 296.757812 132.53125 C 283.738281 132.777344 275.535156 132.53125 272.148438 131.789062 C 269.542969 101.5 269.542969 91.207031 272.148438 60.917969 C 279.960938 59.3125 290.117188 58.566406 302.617188 58.691406 C 316.679688 58.691406 325.925781 59.929688 330.351562 62.402344 C 327.488281 83.421875 327.488281 88.191406 330.351562 108.714844 C 348.320312 110.074219 365.378906 110.074219 381.523438 108.714844 C 382.824219 98.328125 383.347656 88.355469 383.085938 70.800781 C 382.824219 47.433594 383.699219 38.46875 383.960938 33.398438 C 362.492188 26.828125 334.648438 20.789062 301.054688 20.542969 Z M 301.054688 20.542969 "/>
<path style=" stroke:none;fill-rule:nonzero;fill:rgb(0.392157%,0.392157%,0.392157%);fill-opacity:1;" d="M 299.230469 314.835938 C 264.335938 314.71875 238.273438 320.21875 217.515625 327.523438 C 216.214844 357.371094 215.917969 435.238281 218 567 C 236.542969 572.625 255.421875 576.847656 270.515625 577.664062 C 271.816406 565.652344 272.464844 544.371094 272.203125 518.566406 C 271.683594 492.878906 272.074219 477.96875 273.375 465.839844 C 286.917969 463.820312 299.417969 464.476562 310.875 467.804688 C 321.03125 470.660156 327.28125 474.523438 329.625 479.398438 L 329.625 526.058594 C 329.625 554.480469 330.238281 572.816406 331.28125 577.691406 C 350.914062 575.570312 368.539062 571.238281 384.164062 566.488281 C 385.207031 560.898438 384.3125 548.59375 384.3125 522.667969 L 384.3125 474.683594 C 383.269531 472.425781 377.152344 468.144531 365.953125 461.839844 C 355.535156 455.894531 350.328125 451.4375 350.328125 448.464844 C 350.328125 447.75 355.796875 443.46875 366.734375 435.621094 C 377.152344 428.011719 382.488281 423.730469 382.75 422.777344 C 383.011719 422.300781 383.53125 414.628906 384.3125 399.765625 C 384.832031 391.085938 384.964844 378.957031 384.703125 363.378906 C 384.183594 346.851562 384.050781 334.660156 384.3125 326.8125 C 360.6875 320.570312 332.5625 314.957031 299.230469 314.835938 Z M 300.328125 357.539062 C 312.046875 357.421875 321.292969 357.957031 328.0625 359.144531 C 329.105469 363.1875 329.625 363.792969 329.625 384.960938 C 329.625 404.703125 329.496094 407.226562 329.234375 408.535156 C 326.890625 418.523438 319.207031 425.121094 306.1875 428.332031 C 283.792969 427.738281 272.855469 427.503906 273.375 427.621094 C 270.769531 398.25 270.769531 388.996094 273.375 359.859375 C 279.363281 358.433594 288.347656 357.660156 300.328125 357.539062 Z M 300.328125 357.539062 "/>
<path style=" stroke:none;fill-rule:nonzero;fill:rgb(0.392157%,0.392157%,0.392157%);fill-opacity:1;" d="M 415.058594 46.363281 C 415.316406 70.0625 416.1875 158.34375 415.667969 304.957031 C 415.40625 408.601562 412.335938 489.628906 414.941406 553.691406 C 446.023438 540.832031 458.132812 528.046875 469.308594 521.4375 L 469.574219 261.988281 C 469.59375 242.457031 471.003906 231.128906 473.871094 228.003906 C 477.777344 232.691406 482.074219 242.328125 486.761719 256.910156 C 491.1875 270.453125 495.875 279.566406 500.824219 284.253906 C 502.90625 282.171875 505.902344 276.179688 509.808594 266.285156 C 512.933594 258.472656 516.839844 253.65625 521.527344 251.832031 C 531.421875 287.25 530.511719 325.398438 518.792969 366.285156 C 517.488281 370.453125 514.496094 377.742188 509.808594 388.160156 C 505.640625 397.273438 503.167969 404.304688 502.386719 409.253906 C 500.5625 419.410156 500.433594 433.472656 501.996094 451.441406 C 503.296875 470.453125 503.675781 479.164062 502.636719 489.582031 C 519.082031 472.039062 534.902344 455.28125 552.089844 418.300781 C 585.941406 345.382812 582.574219 283.523438 566.730469 217.222656 C 558.316406 196.152344 558.691406 192.859375 549.121094 176.925781 C 541.566406 160.519531 535.84375 150.0625 527.449219 140.800781 C 508.632812 171.546875 499.886719 186.578125 499.140625 189.011719 C 493.96875 175.75 488.671875 157.117188 483.246094 133.082031 C 476.214844 101.050781 471.53125 85.148438 469.449219 78.378906 C 463.113281 71.554688 432.105469 54.394531 415.058594 46.363281 Z M 415.058594 46.363281 "/>
</g>
</svg>
