<?xml version="1.0" encoding="UTF-8"?>
<svg xmlns="http://www.w3.org/2000/svg" xmlns:xlink="http://www.w3.org/1999/xlink" width="600px" height="600px" viewBox="0 0 600 600" version="1.1">
<g id="surface1">
<path style=" stroke:none;fill-rule:nonzero;fill:rgb(0.392157%,0.392157%,0.392157%);fill-opacity:1;" d="M 185.421875 45.226562 C 140.890625 67.101562 104.429688 96.527344 76.046875 133.507812 C 43.492188 175.695312 25.394531 222.960938 21.75 275.304688 C 17.320312 343.011719 31.253906 401.734375 63.546875 451.476562 C 92.453125 496.007812 131.113281 531.480469 185.542969 556.480469 C 184.386719 488.3125 187.390625 432.484375 185.046875 386.914062 C 166.816406 384.046875 152.085938 384.546875 133.859375 387.414062 C 133.078125 392.101562 133.335938 403.039062 134.640625 420.226562 C 135.679688 433.507812 134.507812 442.230469 131.125 446.398438 C 103 421.65625 85.8125 388.714844 79.5625 347.570312 C 70.1875 287.414062 78 235.328125 103 191.320312 C 113.675781 172.570312 123.570312 161.761719 132.6875 158.898438 C 134.507812 162.804688 134.898438 172.179688 133.859375 187.023438 C 133.078125 201.605469 134.117188 211.371094 136.984375 216.320312 C 147.921875 218.664062 162.28125 217.75 185.71875 213.585938 Z M 185.421875 45.226562 "/>
<path style=" stroke:none;fill-rule:nonzero;fill:rgb(0.392157%,0.392157%,0.392157%);fill-opacity:1;" d="M 300.269531 20.984375 C 268.496094 20.984375 240.671875 26.984375 217.847656 32.972656 C 218.105469 32.488281 217.847656 64.996094 217.699219 86.75 C 255.980469 83.722656 272.960938 82.144531 272.179688 82.023438 C 271.65625 93.773438 271.789062 96.390625 272.570312 153.917969 C 272.828125 197.519531 271.65625 212.035156 269.054688 237.46875 C 262.023438 237.832031 253.167969 237.226562 242.492188 235.652344 C 226.867188 233.351562 218.011719 232.140625 215.929688 232.019531 L 215.929688 276 C 237.28125 280.722656 264.625 283.085938 297.960938 283.085938 C 329.992188 283.085938 357.726562 280.964844 381.164062 276.726562 C 384.289062 267.765625 384.289062 239.285156 381.164062 231.292969 C 377.515625 231.535156 368.792969 232.746094 354.992188 234.925781 C 344.054688 236.621094 335.070312 237.226562 328.039062 236.742188 C 326.214844 215.667969 325.304688 206.769531 325.304688 106.003906 C 325.304688 92.320312 326.734375 84.082031 329.601562 81.296875 C 330.640625 81.296875 348.351562 83.359375 382.726562 87.476562 C 384.546875 75.972656 385.609375 39.398438 383.789062 32.617188 C 359.644531 26.628906 332.039062 20.984375 300.269531 20.984375 Z M 300.269531 20.984375 "/>
<path style=" stroke:none;fill-rule:nonzero;fill:rgb(0.392157%,0.392157%,0.392157%);fill-opacity:1;" d="M 256.589844 317.386719 C 244.96875 317.25 231.75 319.964844 216.941406 325.53125 C 214.335938 431.792969 213.980469 460.394531 216.585938 566.65625 C 233.511719 571.773438 250.84375 576.164062 267.6875 577.355469 C 268.726562 550.675781 268.894531 548.058594 268.894531 423.027344 C 268.894531 405.808594 269.804688 396.035156 271.628906 393.707031 C 273.710938 394.949219 278.269531 402.316406 285.300781 415.8125 C 292.589844 430.859375 296.496094 438.851562 297.019531 439.78125 C 299.363281 438.539062 304.308594 430.550781 311.863281 415.8125 C 318.632812 402.9375 324.621094 395.570312 329.832031 393.707031 C 331.132812 421.628906 331.652344 464.445312 331.394531 522.152344 C 330.871094 579.859375 330.730469 548.550781 332.035156 576.472656 C 356.019531 574.839844 371.710938 570.789062 383.171875 565.203125 C 383.234375 527.863281 384.910156 552.980469 384.128906 485.65625 C 382.824219 410.730469 382.566406 357.332031 383.347656 326.460938 C 375.011719 322.425781 358.085938 319.484375 332.566406 317.621094 C 328.660156 321.34375 323.449219 329.332031 316.941406 341.585938 C 311.210938 352.132812 305.089844 359.503906 298.582031 363.691406 C 294.675781 361.984375 288.945312 353.765625 281.394531 339.027344 C 274.621094 325.375 267.980469 318.242188 261.472656 317.621094 C 259.875 317.484375 258.25 317.40625 256.589844 317.386719 Z M 256.589844 317.386719 "/>
<path style=" stroke:none;fill-rule:nonzero;fill:rgb(0.392157%,0.392157%,0.392157%);fill-opacity:1;" d="M 416.53125 46.515625 L 416.421875 554.15625 C 425.941406 551.074219 435.980469 543.984375 446.65625 538.515625 C 460.519531 529.671875 467.089844 524.828125 472.484375 520.109375 L 473.234375 474.28125 C 474.566406 392.78125 473.777344 344.722656 475.859375 330.140625 C 502.941406 327.277344 520.78125 327.796875 529.375 331.703125 C 530.675781 344.203125 527.421875 358.65625 519.609375 375.0625 C 509.972656 395.113281 504.765625 406.832031 503.984375 410.21875 C 502.160156 419.332031 502.53125 432.746094 504.09375 450.453125 C 505.65625 469.722656 504.035156 481.316406 502.734375 491.734375 C 507.453125 485.933594 514.417969 480.96875 525.875 465.34375 C 552.699219 428.363281 565.636719 394.046875 573.1875 358.890625 C 583.75 295.566406 582.417969 239.308594 551.6875 178.109375 C 535.28125 145.558594 521.234375 125.792969 505.296875 112.0625 C 506.339844 120.917969 506.328125 130.269531 504.765625 151.625 C 503.464844 171.675781 503.722656 185.738281 505.546875 193.8125 C 506.328125 197.71875 511.667969 210.347656 521.5625 231.703125 C 528.59375 247.066406 530.675781 260.609375 527.8125 272.328125 C 501.25 275.714844 483.410156 275.191406 474.296875 270.765625 C 472.996094 246.808594 472.472656 214.515625 472.734375 173.890625 C 472.996094 119.722656 472.996094 93.78125 472.734375 82.0625 C 458.671875 67.738281 437.105469 54.472656 416.53125 46.515625 Z M 416.53125 46.515625 "/>
</g>
</svg>
