<?xml version="1.0" encoding="UTF-8"?>
<svg xmlns="http://www.w3.org/2000/svg" xmlns:xlink="http://www.w3.org/1999/xlink" width="600px" height="600px" viewBox="0 0 600 600" version="1.1">
<g id="surface1">
<path style=" stroke:none;fill-rule:nonzero;fill:rgb(0.392157%,0.392157%,0.392157%);fill-opacity:1;" d="M 137.851562 215.957031 C 148.789062 218.300781 162.441406 218.90625 185.878906 214.738281 C 188.480469 158.75 192.015625 101.636719 189.414062 46.425781 C 188.890625 46.425781 188.371094 46.296875 187.851562 46.035156 C 187.328125 45.515625 186.808594 45.125 186.289062 44.863281 C 141.757812 66.738281 105.296875 96.167969 76.914062 133.144531 C 44.359375 175.332031 26.261719 222.597656 22.617188 274.941406 C 18.1875 342.652344 32.121094 401.375 64.414062 451.113281 C 93.320312 495.644531 132.84375 530.054688 187.269531 555.054688 C 187.828125 488.03125 188.542969 433.339844 186.199219 387.765625 C 167.96875 384.902344 152.953125 384.1875 134.726562 387.050781 C 133.945312 391.738281 134.203125 402.675781 135.507812 419.863281 C 136.546875 433.144531 135.375 441.871094 131.992188 446.035156 C 103.867188 421.296875 86.679688 388.355469 80.429688 347.207031 C 71.054688 287.050781 78.867188 234.96875 103.867188 190.957031 C 114.542969 172.207031 124.4375 161.402344 133.554688 158.535156 C 135.375 162.441406 135.765625 171.816406 134.726562 186.660156 C 133.945312 201.246094 134.984375 211.011719 137.851562 215.957031 Z M 137.851562 215.957031 "/>
<path style=" stroke:none;fill-rule:nonzero;fill:rgb(0.392157%,0.392157%,0.392157%);fill-opacity:1;" d="M 384.785156 38.742188 C 376.5625 32.058594 359.863281 27.179688 334.683594 24.09375 C 330.828125 30.261719 325.691406 43.492188 319.269531 63.792969 C 313.617188 81.261719 307.578125 93.464844 301.15625 100.402344 C 297.300781 97.578125 291.648438 83.960938 284.195312 59.550781 C 277.515625 36.941406 270.964844 25.125 264.542969 24.09375 C 252.078125 25.203125 239.453125 27.042969 219.976562 34.421875 C 217.40625 210.417969 218.039062 389.191406 220.605469 565.1875 C 237.308594 573.664062 253.878906 577.132812 270.324219 575.59375 C 271.351562 531.402344 271.863281 405.761719 271.863281 198.679688 C 271.863281 170.160156 272.765625 153.972656 274.5625 150.117188 C 276.617188 152.175781 281.113281 164.378906 288.050781 186.730469 C 295.246094 211.652344 299.097656 224.886719 299.613281 226.425781 C 301.925781 224.371094 306.808594 211.140625 314.257812 186.730469 C 320.9375 165.40625 326.847656 153.203125 331.984375 150.117188 C 333.269531 196.367188 333.785156 267.277344 333.527344 362.855469 C 333.011719 458.433594 333.398438 529.347656 334.683594 575.59375 C 356.78125 576.105469 373.480469 571.738281 384.785156 562.488281 C 386.070312 500.054688 386.328125 413.085938 385.554688 301.578125 C 384.269531 177.480469 384.015625 89.871094 384.785156 38.742188 Z M 384.785156 38.742188 "/>
<path style=" stroke:none;fill-rule:nonzero;fill:rgb(0.392157%,0.392157%,0.392157%);fill-opacity:1;" d="M 469.683594 273.351562 C 466.867188 236.914062 466.867188 200.605469 469.683594 164.421875 C 469.683594 163.90625 470.195312 163.519531 471.21875 163.261719 C 472.242188 162.742188 472.75 162.097656 472.75 161.320312 C 502.933594 191.558594 518.921875 228.902344 520.710938 273.351562 C 489.25 274.644531 472.242188 274.644531 469.683594 273.351562 Z M 417.117188 48.128906 C 415.070312 48.644531 414.175781 50.066406 414.429688 52.390625 C 414.429688 82.628906 414.304688 166.621094 414.046875 304.367188 C 413.792969 407.738281 414.304688 491.214844 415.582031 554.789062 C 447.8125 542.382812 465.332031 531.140625 468.148438 521.0625 L 468.148438 426.476562 C 468.148438 373.753906 468.660156 342.355469 469.683594 332.277344 C 480.425781 330.984375 498.203125 330.46875 523.015625 330.726562 C 547.828125 331.242188 566.738281 330.855469 577.226562 329.5625 C 585.164062 209.671875 530.949219 105.757812 417.117188 48.128906 Z M 417.117188 48.128906 "/>
</g>
</svg>
